<?xml version="1.0" encoding="UTF-8"?>
<svg width="22px" height="22px" viewBox="0 0 22 22" version="1.1" xmlns="http://www.w3.org/2000/svg" xmlns:xlink="http://www.w3.org/1999/xlink">
    <!-- Generator: Sketch 52.2 (67145) - http://www.bohemiancoding.com/sketch -->
    <title>形状</title>
    <desc>Created with Sketch.</desc>
    <g id="Page-1" stroke="none" stroke-width="1" fill="none" fill-rule="evenodd">
        <g id="TXID" transform="translate(-1036.000000, -956.000000)" fill="#5B98FA" fill-rule="nonzero">
            <g id="分组-2-copy-2" transform="translate(903.000000, 934.000000)">
                <g id="分组-4" transform="translate(133.000000, 21.000000)">
                    <path d="M19.5525227,1.00000026 C20.9042416,1.00000026 22.0000255,2.09578415 22.0000255,3.44750311 L22.0000255,20.552523 C22.0000255,21.904242 20.9042416,23.0000258 19.5525228,23.0000259 L2.44750285,23.0000259 C1.09578389,23.0000259 2.0410376e-07,21.904242 0,20.5525228 L0,3.44750285 C0,2.09578389 1.09578389,1.00000006 2.44750295,1 L19.5525229,1 Z M9.13799822,16.3951626 L9.138293,16.3951646 C9.38838087,16.3951646 9.50452698,16.2693025 9.64493868,16.1172338 L10.8591375,14.8413773 L13.3858922,16.8644745 C13.8498321,17.1420599 14.1853305,16.9968881 14.3014776,16.3951646 L15.9615012,7.92518016 C16.1323243,7.18449181 15.7052666,6.84725102 15.2597678,7.0655265 L5.51287048,11.1386235 C4.84769519,11.4293126 4.85384286,11.8327602 5.39089991,11.9979327 L7.89338996,12.8575863 L13.6790469,8.89690832 C13.9537227,8.7186321 14.2038105,8.81759778 13.9964284,9.02242501 L9.3091445,13.5982757 L9.13799822,16.3951626 Z" id="形状"></path>
                </g>
            </g>
        </g>
    </g>
</svg>