<?xml version="1.0" encoding="UTF-8"?>
<svg width="22px" height="22px" viewBox="0 0 22 22" version="1.1" xmlns="http://www.w3.org/2000/svg" xmlns:xlink="http://www.w3.org/1999/xlink">
    <!-- Generator: Sketch 52.2 (67145) - http://www.bohemiancoding.com/sketch -->
    <title>形状</title>
    <desc>Created with Sketch.</desc>
    <g id="Page-1" stroke="none" stroke-width="1" fill="none" fill-rule="evenodd">
        <g id="TXID" transform="translate(-216.000000, -956.000000)" fill="#5B98FA" fill-rule="nonzero">
            <g id="分组-2" transform="translate(83.000000, 934.000000)">
                <g id="分组-3" transform="translate(133.000000, 21.000000)">
                    <path d="M19.5525228,1 L2.44750285,1 C1.09578379,1.00000006 -1.06983862e-07,2.09578389 -1.06983862e-07,3.44750285 C-1.06983862e-07,3.44750285 -1.06983862e-07,3.44750285 -1.06983862e-07,3.44750285 L-1.06983862e-07,20.5525228 L-1.06983835e-07,20.552523 C9.71198987e-08,21.904242 1.09578379,23.0000259 2.44750274,23.0000259 L19.5525226,23.0000259 C20.9042415,23.0000258 22.0000254,21.904242 22.0000254,20.552523 L22.0000254,3.44750311 C22.0000254,2.09578415 20.9042415,1.00000026 19.5525226,1.00000026 L19.5525228,1 Z M10.5416861,10.9458377 L10.5416867,10.945836 C10.2161271,11.9580542 9.80202817,12.9396249 9.30419166,13.8791656 L9.30419119,13.8791664 C9.06521162,14.2838165 8.86568385,14.7105009 8.70835788,15.1533352 L8.84585804,15.1075019 L8.84585998,15.1075012 C10.1678338,14.6042742 11.5333221,14.2237791 12.9250386,13.9708346 C12.7471779,13.8524931 12.5786304,13.7207196 12.4208705,13.5766667 L12.4208702,13.5766664 C11.6274233,12.841988 11.002049,11.9445739 10.5875354,10.9458372 L10.5416861,10.9458377 Z M18.4708691,15.602517 C18.1857304,15.902538 17.7694787,16.0401434 17.3617005,15.9691848 L17.3617,15.9691848 C16.0880274,15.9290704 14.8377342,15.6164968 13.6950219,15.0525163 L13.6950229,15.0525162 C12.0282352,15.1969099 10.3795503,15.5039249 8.7725172,15.9691825 L8.55251695,16.0516826 C7.04001519,18.6458595 5.91251387,19.8008608 4.88583885,19.8008608 C4.69673877,19.8022778 4.51046773,19.7549205 4.34500562,19.6633606 L4.34500525,19.6633604 C4.15074911,19.547923 3.96674231,19.4160513 3.79500461,19.2691926 C3.65848819,19.0712946 3.61187971,18.8249531 3.66666236,18.5908613 L3.66666245,18.590861 C4.08006313,17.4704603 4.89748224,16.5451401 5.95833895,15.9966842 L5.95833947,15.9966838 C6.30398909,15.7668244 6.66897682,15.567462 7.04917335,15.4008505 C7.41584116,14.7683498 7.81000685,14.0258489 8.22250733,13.2008479 L8.22250835,13.2008458 C8.77850958,12.0500877 9.22654096,10.8502162 9.56084037,9.61668933 L9.56084044,9.61668949 C9.01400875,8.34176222 8.92336177,6.91730353 9.30417276,5.58335862 C9.40190444,5.10667777 9.78579501,4.74106699 10.2666739,4.66669015 L10.5416742,4.66669015 C10.8182429,4.66234824 11.0852489,4.7678329 11.2841751,4.96002311 C12.0908434,5.76669143 11.7150082,7.71002631 11.2841751,9.36002823 C11.2841751,9.43336157 11.2841751,9.49752839 11.2383418,9.53419517 L11.2383416,9.53419467 C11.6075575,10.7276166 12.2803479,11.804709 13.1908439,12.6600245 L13.1908437,12.6600244 C13.533593,12.9242567 13.8951024,13.1632191 14.2725102,13.3750209 C14.7961324,13.3183764 15.3224959,13.290834 15.8491709,13.2925208 C17.3616727,13.2925208 18.2783476,13.5583537 18.5991741,14.1358544 C18.7269013,14.3340326 18.7789681,14.5715881 18.7458409,14.8050226 L18.7458409,14.8050214 C18.7314132,15.0915073 18.6360599,15.368033 18.4708406,15.6025223 L18.4708691,15.602517 Z M15.6475397,14.2916828 C15.5386926,14.2803408 15.4315721,14.3252623 15.363372,14.4108497 C16.0912934,14.760085 16.8776203,14.9714314 17.6825484,15.034183 L17.9667161,15.034183 C18.0308829,15.034183 18.1042163,15.034183 18.0767162,14.8783496 C18.054988,14.8247436 18.0163683,14.7796874 17.9667161,14.7500162 C17.4900482,14.3833483 17.352548,14.291683 15.6475396,14.291683 L15.6475397,14.2916828 Z M6.75585552,16.5008592 C6.551776,16.6123062 6.35574245,16.7378905 6.16918696,16.8766926 L6.16918721,16.8766924 C5.48866455,17.4113467 4.9763411,18.1305091 4.69335288,18.9483622 C5.24335352,18.783362 5.95835435,17.958361 6.75585528,16.5191855 L6.75585552,16.5008592 Z M10.486686,7.9300231 C10.5600194,7.57252269 10.5966862,7.26085494 10.6700195,7.01335465 C10.7849675,6.53741935 10.7849675,6.04095568 10.6700195,5.56502036 C10.6609472,5.52978443 10.6418406,5.49794026 10.6150194,5.47335351 C10.5829361,5.44585348 10.486686,5.40002016 10.4500193,5.41835345 C10.4203933,5.42951231 10.3970114,5.45289434 10.3858524,5.48252026 C10.3858524,5.48252026 10.1108521,6.0325209 10.4362692,7.89794689 L10.4362692,7.99419701 C10.4573335,7.98438491 10.4749167,7.96840026 10.486686,7.94836369 L10.486686,7.9300231 Z" id="形状"></path>
                </g>
            </g>
        </g>
    </g>
</svg>