<?xml version="1.0" encoding="UTF-8"?>
<svg width="22px" height="22px" viewBox="0 0 22 22" version="1.1" xmlns="http://www.w3.org/2000/svg" xmlns:xlink="http://www.w3.org/1999/xlink">
    <!-- Generator: Sketch 52.2 (67145) - http://www.bohemiancoding.com/sketch -->
    <title>形状</title>
    <desc>Created with Sketch.</desc>
    <g id="Page-1" stroke="none" stroke-width="1" fill="none" fill-rule="evenodd">
        <g id="TXID" transform="translate(-626.000000, -956.000000)" fill="#5B98FA" fill-rule="nonzero">
            <g id="分组-2-copy" transform="translate(493.000000, 934.000000)">
                <g id="分组-4" transform="translate(133.000000, 21.000000)">
                    <path d="M19.5525227,1.00000026 C20.9042416,1.00000026 22.0000255,2.09578415 22.0000255,3.44750311 L22.0000255,20.552523 C22.0000255,21.904242 20.9042416,23.0000258 19.5525228,23.0000259 L2.44750285,23.0000259 C1.09578389,23.0000259 2.0410376e-07,21.904242 0,20.5525228 L0,3.44750285 C0,2.09578389 1.09578389,1.00000006 2.44750295,1 L19.5525229,1 Z M9.53849647,8.12974043 C8.85572711,7.76056055 8.00910416,8.22417102 8,8.9539883 L8,16.0459934 C8,16.7758207 8.85573774,17.2394513 9.53849647,16.8702513 L15.4879309,13.3242589 C16.1706897,12.9550488 16.1706897,12.044943 15.4879309,11.675743 L9.53849647,8.12974043 Z" id="形状"></path>
                </g>
            </g>
        </g>
    </g>
</svg>